<svg width="960" height="164" viewBox="0 0 960 164" fill="none" xmlns="http://www.w3.org/2000/svg">
<g clip-path="url(#clip0_313_45)">
<path d="M0 163.915V21.1524C33.7761 36.6949 67.5522 52.2375 122.222 44.144C176.892 36.0506 252.456 4.32111 305.556 0.299456C358.655 -3.7222 389.29 19.964 427.778 27.0339C466.266 34.1039 512.607 24.5578 568.056 20.083C623.504 15.6082 688.059 16.2048 731.25 23.2911C774.441 30.3774 796.269 43.9535 837.5 44.6787C878.731 45.4039 939.365 33.2781 1000 21.1524V163.915H0Z" fill="#EF4444" fill-opacity="0.533333"/>
<path d="M0 163.915V92.2661C59.4159 97.9866 118.832 103.707 157.639 108.841C196.446 113.976 214.644 118.524 264.583 110.98C314.522 103.436 396.203 83.8003 451.389 75.6907C506.575 67.5811 535.268 70.9979 573.611 70.3438C611.955 69.6897 659.949 64.9648 708.333 72.4826C756.717 80.0004 805.491 99.7609 854.167 105.099C902.843 110.436 951.421 101.351 1000 92.2661V163.915H0Z" fill="#EF4444"/>
</g>
<defs>
<clipPath id="clip0_313_45">
<rect width="1000" height="164" fill="white"/>
</clipPath>
</defs>
</svg>
